# xmcd CD database file
#
# Track frame offsets:
#	150
#	13752
#	27335
#	39682
#	55362
#	68562
#	82372
#	96935
#	118120
#	133030
#	145552
#	155815
#	172084
#	182877
#	198602
#	209822
#	219300
#	232270
#	243957
#	261505
#
# Disc length: 3637 seconds
#
# Revision: 3
# Processed by: cddbd v1.4PL0 Copyright (c) Steve Scherf et al.
# Submitted via: Gronk 1.4
#
DISCID=320e3314,400e3314
DTITLE=Waylon Jennings - The Masters
DYEAR=1900
DGENRE=country
TTITLE0=Amanda
TTITLE1=I Recall A Gypsy Woman
TTITLE2=Folsom Prison Blues
TTITLE3=I Walk The Line
TTITLE4=Love Of The Common People
TTITLE5=Lovin' Her Was Easier
TTITLE6=Are You Ready For The Country?
TTITLE7=Me And Bobby McGee
TTITLE8=Delta Dawn
TTITLE9=Honky Tonk Blues
TTITLE10=Busted
TTITLE11=Sweet Music Man
TTITLE12=Tiger By The Tail
TTITLE13=Tonight The Bottle Let Me Down
TTITLE14=Dream Baby
TTITLE15=Heartaches By The Number
TTITLE16=Today I Started Loving You Again
TTITLE17=But You Know I Love You
TTITLE18=Sunday Morning Coming Down
TTITLE19=Mammas, Don't Let Your Babies Grow Up...
EXTD=EAB CD 025
EXTT0=
EXTT1=
EXTT2=
EXTT3=
EXTT4=
EXTT5=
EXTT6=
EXTT7=
EXTT8=
EXTT9=
EXTT10=
EXTT11=
EXTT12=
EXTT13=
EXTT14=
EXTT15=
EXTT16=
EXTT17=
EXTT18=
EXTT19=
PLAYORDER=
